<?xml version="1.0" encoding="utf-8"?>
<!-- Generator: Adobe Illustrator 24.2.0, SVG Export Plug-In . SVG Version: 6.00 Build 0)  -->
<svg version="1.1" id="Layer_1" xmlns="http://www.w3.org/2000/svg" xmlns:xlink="http://www.w3.org/1999/xlink" x="0px" y="0px"
	 viewBox="0 0 1240 346" style="enable-background:new 0 0 1240 346;" xml:space="preserve">
<style type="text/css">
	.st0{opacity:0.4;fill:#3E76E5;}
</style>
<path class="st0" d="M-4.1,64.8c0,0,231.7,304.3,664.8,266.4s435.9-166.4,579.7-87.9V-4.5H-0.4C-0.4-4.5,1.6,69.2-4.1,64.8z"/>
<path class="st0" d="M-4.1,145.5c0,0,170.9,82.5,592-14c384-88,510.8,133.3,654.5,211.8l-2.1-347.1H-0.4
	C-0.4-3.7,1.6,149.9-4.1,145.5z"/>
<path class="st0" d="M-1.1,195.5c0,0,76.4,198.1,648.5,40c408.2-112.8,449.2-154.6,592.9-97.9V2H-0.4L-1.1,195.5z"/>
</svg>
